<svg xmlns="http://www.w3.org/2000/svg" version="1.1" xmlns:xlink="http://www.w3.org/1999/xlink" xmlns:svgjs="http://svgjs.com/svgjs" width="1440" height="560" preserveAspectRatio="none" viewBox="0 0 1440 560"><g mask="url(&quot;#SvgjsMask1000&quot;)" fill="none"><rect width="1440" height="560" x="0" y="0" fill="#0e2a47"></rect><path d="M0,507.005C94.971,516.853,187.888,468.219,263.137,409.449C334.54,353.682,374.129,270.426,409.638,187.075C444.347,105.601,480.067,20.436,466.12,-67.018C452.263,-153.904,378.597,-213.483,333.69,-289.144C276.979,-384.695,266.963,-520.838,167.441,-570.25C68.105,-619.57,-60.277,-587.869,-156.338,-532.439C-245.269,-481.123,-272.128,-370.379,-328.105,-284.305C-375.364,-211.635,-438.903,-150.256,-459.623,-66.084C-481.673,23.49,-492.372,123.674,-448.51,204.827C-405.349,284.682,-305.536,307.564,-230.255,358.284C-152.913,410.392,-92.761,497.386,0,507.005" fill="#0b2239"></path><path d="M1440 1090.4679999999998C1537.991 1087.7730000000001 1628.371 1029.4479999999999 1696.2359999999999 958.71 1756.632 895.7570000000001 1764.508 803.758 1793.876 721.61 1820.424 647.35 1865.52 578.254 1860.383 499.558 1855.046 417.79200000000003 1811.936 345.56 1764.9470000000001 278.432 1713.58 205.04899999999998 1662.817 119.09300000000002 1576.732 94.33300000000003 1490.724 69.59500000000003 1405.746 125.68900000000002 1319.723 150.37400000000002 1233.088 175.235 1133.077 174.978 1070.306 239.65800000000002 1006.636 305.264 982.1 403.31100000000004 985.5930000000001 494.666 988.819 579.047 1057.667 641.9 1088.688 720.439 1122.035 804.867 1112.0430000000001 907.226 1174.5439999999999 973.057 1242.539 1044.674 1341.283 1093.183 1440 1090.4679999999998" fill="#113255"></path></g><defs><mask id="SvgjsMask1000"><rect width="1440" height="560" fill="#ffffff"></rect></mask></defs></svg>